<svg width="30" height="30" viewBox="0 0 30 30" fill="none" xmlns="http://www.w3.org/2000/svg">
<path d="M27.5 0H2.5C1.125 0 0 1.5 0 3.33333V26.6667C0 28.5 1.125 30 2.5 30H27.5C28.875 30 29.9875 28.5 29.9875 26.6667L30 3.33333C30 1.5 28.875 0 27.5 0ZM10 5C12.075 5 13.75 7.23333 13.75 10C13.75 12.7667 12.075 15 10 15C7.925 15 6.25 12.7667 6.25 10C6.25 7.23333 7.925 5 10 5ZM17.5 25H2.5V23.3333C2.5 20 7.5 18.1667 10 18.1667C12.5 18.1667 17.5 20 17.5 23.3333V25ZM22.3125 18.3333H24.3625L26.25 21.6667L23.7625 24.9833C22.125 23.35 20.9125 21.0167 20.35 18.3333C20.125 17.2667 20 16.15 20 15C20 13.85 20.125 12.7333 20.35 11.6667C20.9125 8.96667 22.125 6.65 23.7625 5.01667L26.25 8.33333L24.3625 11.6667H22.3125C22.0375 12.7167 21.875 13.8333 21.875 15C21.875 16.1667 22.0375 17.2833 22.3125 18.3333Z" fill="white"/>
</svg>
