<svg width="30" height="30" viewBox="0 0 30 30" fill="none" xmlns="http://www.w3.org/2000/svg">
<path d="M17.7273 9.25687C17.7273 8.96607 17.8014 8.66688 17.9495 8.35929C18.0968 8.05299 18.2614 7.85137 18.4432 7.75444C19.1023 7.43134 19.7614 7.18901 20.4205 7.02746C21.0795 6.86591 21.7727 6.78514 22.5 6.78514C22.9545 6.78514 23.4036 6.8252 23.8473 6.90533C24.29 6.98675 24.7273 7.09208 25.1591 7.22132C25.3636 7.28594 25.5395 7.4475 25.6868 7.70598C25.835 7.96446 25.9091 8.25525 25.9091 8.57835C25.9091 9.12763 25.7841 9.5315 25.5341 9.78998C25.2841 10.0485 24.9659 10.1131 24.5795 9.98384C24.2614 9.88691 23.9264 9.81389 23.5745 9.76478C23.2218 9.71696 22.8636 9.69305 22.5 9.69305C21.9091 9.69305 21.3295 9.77383 20.7614 9.93538C20.1932 10.0969 19.6477 10.3069 19.125 10.5654C18.7159 10.7916 18.3809 10.7754 18.12 10.517C17.8582 10.2585 17.7273 9.83845 17.7273 9.25687ZM17.7273 19.9192C17.7273 19.6284 17.8014 19.3292 17.9495 19.0216C18.0968 18.7153 18.2614 18.5137 18.4432 18.4168C19.1023 18.0937 19.7614 17.8514 20.4205 17.6898C21.0795 17.5283 21.7727 17.4475 22.5 17.4475C22.9545 17.4475 23.4036 17.4876 23.8473 17.5677C24.29 17.6491 24.7273 17.7544 25.1591 17.8837C25.3636 17.9483 25.5395 18.1099 25.6868 18.3683C25.835 18.6268 25.9091 18.9176 25.9091 19.2407C25.9091 19.79 25.7841 20.1939 25.5341 20.4523C25.2841 20.7108 24.9659 20.7754 24.5795 20.6462C24.2614 20.5493 23.9264 20.4763 23.5745 20.4271C23.2218 20.3793 22.8636 20.3554 22.5 20.3554C21.9091 20.3554 21.3295 20.4284 20.7614 20.5745C20.1932 20.7192 19.6477 20.9208 19.125 21.1793C18.7159 21.4055 18.3809 21.3971 18.12 21.1541C17.8582 20.9124 17.7273 20.5008 17.7273 19.9192ZM17.7273 14.588C17.7273 14.2973 17.8014 13.9981 17.9495 13.6905C18.0968 13.3842 18.2614 13.1826 18.4432 13.0856C19.1023 12.7625 19.7614 12.5202 20.4205 12.3586C21.0795 12.1971 21.7727 12.1163 22.5 12.1163C22.9545 12.1163 23.4036 12.1564 23.8473 12.2365C24.29 12.3179 24.7273 12.4233 25.1591 12.5525C25.3636 12.6171 25.5395 12.7787 25.6868 13.0372C25.835 13.2956 25.9091 13.5864 25.9091 13.9095C25.9091 14.4588 25.7841 14.8627 25.5341 15.1212C25.2841 15.3796 24.9659 15.4443 24.5795 15.315C24.2614 15.2181 23.9264 15.1451 23.5745 15.096C23.2218 15.0481 22.8636 15.0242 22.5 15.0242C21.9091 15.0242 21.3295 15.105 20.7614 15.2666C20.1932 15.4281 19.6477 15.6381 19.125 15.8966C18.7159 16.1228 18.3809 16.1066 18.12 15.8481C17.8582 15.5897 17.7273 15.1696 17.7273 14.588ZM16.3636 25.2989C17.3636 24.6204 18.3695 24.1111 19.3814 23.7712C20.3923 23.4326 21.4318 23.2633 22.5 23.2633C23.3182 23.2633 24.1195 23.3603 24.9041 23.5541C25.6877 23.748 26.4773 24.0388 27.2727 24.4265V5.23425C26.5227 4.78191 25.7445 4.44265 24.9382 4.21648C24.1309 3.99031 23.3182 3.87722 22.5 3.87722C21.4318 3.87722 20.375 4.07108 19.3295 4.45881C18.2841 4.84653 17.2955 5.42811 16.3636 6.20355V25.2989ZM15 30C14.6818 30 14.3809 29.9438 14.0973 29.8313C13.8127 29.7176 13.5455 29.5638 13.2955 29.37C12.4091 28.6268 11.4773 28.0698 10.5 27.6989C9.52273 27.3267 8.52273 27.1405 7.5 27.1405C6.54545 27.1405 5.60818 27.3183 4.68818 27.6737C3.76727 28.0291 2.88636 28.5299 2.04545 29.1761C1.56818 29.5315 1.10818 29.5153 0.665455 29.1276C0.221818 28.7399 0 28.1745 0 27.4313V4.07108C0 3.71567 0.0627273 3.37641 0.188182 3.05331C0.312727 2.73021 0.5 2.48788 0.75 2.32633C1.79545 1.55089 2.88636 0.969306 4.02273 0.581584C5.15909 0.193861 6.31818 0 7.5 0C8.81818 0 10.1082 0.242326 11.37 0.726979C12.6309 1.21163 13.8409 1.93861 15 2.90792C16.1591 1.93861 17.3695 1.21163 18.6314 0.726979C19.8923 0.242326 21.1818 0 22.5 0C23.6818 0 24.8409 0.193861 25.9773 0.581584C27.1136 0.969306 28.2045 1.55089 29.25 2.32633C29.5 2.48788 29.6877 2.73021 29.8132 3.05331C29.9377 3.37641 30 3.71567 30 4.07108V27.4313C30 28.1745 29.7786 28.7399 29.3359 29.1276C28.8923 29.5153 28.4318 29.5315 27.9545 29.1761C27.1136 28.5299 26.2327 28.0291 25.3118 27.6737C24.3918 27.3183 23.4545 27.1405 22.5 27.1405C21.4773 27.1405 20.4773 27.3267 19.5 27.6989C18.5227 28.0698 17.5909 28.6268 16.7045 29.37C16.4545 29.5638 16.1877 29.7176 15.9041 29.8313C15.6195 29.9438 15.3182 30 15 30Z" fill="white"/>
</svg>
