<svg width="40" height="40" viewBox="0 0 40 40" fill="none" xmlns="http://www.w3.org/2000/svg">
<path d="M20 0C8.95312 0 0 8.95312 0 20C0 31.0469 8.95312 40 20 40C31.0469 40 40 31.0469 40 20C40 8.95312 31.0469 0 20 0ZM20 4C28.8203 4 36 11.1797 36 20C36 20.9375 35.9062 21.8594 35.75 22.75C35.2578 22.6406 34.5313 22.5078 33.6875 22.5C33.0625 22.4922 32.2812 22.5938 31.625 22.6875C31.8516 21.9922 32 21.2266 32 20.4375C32 18.5156 31.0625 16.7266 29.5625 15.25C29.9766 13.7109 30.3828 11.0703 29.3125 10C26.1484 10 24.3984 12.2578 24.3125 12.375C23.3359 12.1406 22.3281 12 21.25 12C19.8672 12 18.5469 12.25 17.3125 12.625L17.6875 12.3125C17.6875 12.3125 15.9297 9.875 12.6875 9.875C11.5547 11.0156 12.0703 13.9063 12.5 15.375C10.9687 16.8359 10 18.5625 10 20.4375C10 21.0938 10.1562 21.7188 10.3125 22.3125C9.75781 22.25 7.75781 22.0625 6.9375 22.0625C6.21094 22.0625 5.08594 22.2344 4.1875 22.4375C4.0625 21.6406 4 20.8281 4 20C4 11.1797 11.1797 4 20 4ZM6.9375 22.5625C7.72656 22.5625 10.125 22.8438 10.4375 22.875C10.4766 22.9844 10.5156 23.0859 10.5625 23.1875C9.70312 23.1094 8.03906 22.9922 6.9375 23.125C6.20312 23.2109 5.26562 23.4766 4.4375 23.6875C4.375 23.4375 4.29687 23.1953 4.25 22.9375C5.125 22.75 6.27344 22.5625 6.9375 22.5625ZM33.6875 23C34.4844 23.0078 35.2109 23.1406 35.6875 23.25C35.6641 23.3828 35.5938 23.4922 35.5625 23.625C35.0547 23.5078 34.2188 23.3359 33.25 23.3125C32.7812 23.3047 32.0312 23.3281 31.375 23.375C31.4062 23.3125 31.4141 23.25 31.4375 23.1875C32.1172 23.0937 32.9844 22.9922 33.6875 23ZM8.1875 23.5625C9.3125 23.5703 10.3672 23.6484 10.8125 23.6875C11.8594 25.6406 13.9766 27.0859 17.25 27.6875C16.4453 28.1328 15.7266 28.7578 15.1875 29.5C14.7187 29.5391 14.2266 29.5625 13.75 29.5625C12.3594 29.5625 11.4922 28.3203 10.75 27.25C10 26.1797 9.07812 26.0625 8.5625 26C8.03906 25.9375 7.85937 26.2344 8.125 26.4375C9.64844 27.6094 10.1953 29 10.8125 30.25C11.3672 31.375 12.5312 32 13.8125 32H14.0625C14.0234 32.2188 14 32.4219 14 32.625V34.8125C9.38281 32.9453 5.86719 29 4.5625 24.125C5.38281 23.9219 6.30469 23.7109 7 23.625C7.32031 23.5859 7.72656 23.5547 8.1875 23.5625ZM33.25 23.8125C34.1484 23.8359 34.9453 24.0078 35.4375 24.125C34.3359 28.2656 31.6172 31.7109 28 33.8125V32.625C28 30.9219 26.6562 28.7344 24.75 27.6875C27.9141 27.1094 29.9766 25.7266 31.0625 23.875C31.8203 23.8203 32.7109 23.7969 33.25 23.8125ZM21 32C21.5469 32 22 32.4531 22 33V35.875C21.3437 35.9609 20.6797 36 20 36V33C20 32.4531 20.4531 32 21 32ZM17 34C17.5469 34 18 34.4531 18 35V35.875C17.3281 35.7891 16.6484 35.6641 16 35.5V35C16 34.4531 16.4531 34 17 34ZM25 34C25.4844 34 25.9062 34.3516 26 34.8125C25.3516 35.0781 24.6875 35.3203 24 35.5V35C24 34.4531 24.4531 34 25 34Z" fill="white" fill-opacity="0.9"/>
</svg>
