<svg width="30" height="30" viewBox="0 0 30 30" fill="none" xmlns="http://www.w3.org/2000/svg">
<path d="M3.75 30C2.71875 30 1.83625 29.6646 1.1025 28.9937C0.3675 28.3217 0 27.5143 0 26.5714V11.1429C0 10.6 0.133125 10.0857 0.399375 9.6C0.664375 9.11429 1.03125 8.71428 1.5 8.4L12.75 0.685714C13.0938 0.457143 13.4531 0.285714 13.8281 0.171428C14.2031 0.0571427 14.5938 0 15 0C15.4062 0 15.7969 0.0571427 16.1719 0.171428C16.5469 0.285714 16.9062 0.457143 17.25 0.685714L28.5 8.4C28.9688 8.71428 29.3363 9.11429 29.6025 9.6C29.8675 10.0857 30 10.6 30 11.1429V26.5714C30 27.5143 29.6331 28.3217 28.8994 28.9937C28.1644 29.6646 27.2812 30 26.25 30H18.75V18H11.25V30H3.75Z" fill="white"/>
</svg>
