<svg width="41" height="41" viewBox="0 0 41 41" fill="none" xmlns="http://www.w3.org/2000/svg">
<path d="M35.9638 0.0913086H4.85265C2.39709 0.0913086 0.408203 2.0802 0.408203 4.53575V35.6469C0.408203 38.1024 2.39709 40.0913 4.85265 40.0913H35.9638C38.4193 40.0913 40.4082 38.1024 40.4082 35.6469V4.53575C40.4082 2.0802 38.4193 0.0913086 35.9638 0.0913086ZM13.7415 31.2024H8.13487V15.6469H13.7415V31.2024ZM10.8393 12.7958C9.12598 12.7958 7.98154 11.6535 7.98154 10.1291C7.98154 8.60464 9.12376 7.46242 11.0282 7.46242C12.7415 7.46242 13.886 8.60464 13.886 10.1291C13.886 11.6535 12.7438 12.7958 10.8393 12.7958ZM33.7415 31.2024H28.3149V22.7002C28.3149 20.3491 26.8682 19.8069 26.326 19.8069C25.7838 19.8069 23.9749 20.1691 23.9749 22.7002C23.9749 23.0624 23.9749 31.2024 23.9749 31.2024H18.3682V15.6469H23.9749V17.818C24.6971 16.5513 26.1438 15.6469 28.8571 15.6469C31.5704 15.6469 33.7415 17.818 33.7415 22.7002V31.2024Z" fill="white" fill-opacity="0.9"/>
</svg>
