<svg width="107" height="99" viewBox="0 0 107 99" fill="none" xmlns="http://www.w3.org/2000/svg">
<ellipse cx="53.4512" cy="49.2549" rx="53.4512" ry="49.2549" fill="url(#paint0_linear_261_69)"/>
<ellipse cx="53.2434" cy="53.1629" rx="46.8216" ry="45.3474" fill="#03071E"/>
<g filter="url(#filter0_d_261_69)">
<path d="M42.8897 33.1898L43.296 33.7372C43.7962 34.4111 44.6639 34.701 45.4687 34.4632L63.6848 29.0804C65.0094 28.689 65.5479 27.1047 64.7363 25.9871L64.0415 25.0304C63.5329 24.3302 62.6318 24.0364 61.8083 24.3025L43.8808 30.0947C42.5783 30.5155 42.0739 32.0908 42.8897 33.1898Z" fill="url(#paint1_linear_261_69)" shape-rendering="crispEdges"/>
<path d="M46.0969 41.6284V39.9337C46.0969 39.0564 46.6686 38.2816 47.5068 38.0227L53.0271 36.3178C54.137 35.9751 55.2247 36.9073 55.0558 38.0565C54.8877 39.2009 55.9662 40.1319 57.0738 39.7984L66.0475 37.0969C66.8247 36.8629 67.6663 37.1218 68.1775 37.7523L68.8991 38.6423C69.7878 39.7384 69.2925 41.3854 67.9465 41.8094L54.5327 46.0354C53.8621 46.2466 53.3517 46.7945 53.1883 47.4783L51.3151 55.3205C51.1613 55.9647 50.6984 56.4909 50.0792 56.7258L25.9486 65.8789C25.7156 65.9673 25.4581 65.9662 25.2257 65.876C24.4262 65.5654 24.3546 64.462 25.1073 64.0508L44.8366 53.2702C45.4289 52.9465 45.8176 52.3454 45.8698 51.6724C45.9787 50.2665 44.6354 49.1938 43.2884 49.6111L31.202 53.3556C30.3839 53.6091 29.4952 53.3135 28.9919 52.6205L28.2441 51.5908C27.4445 50.4898 27.954 48.9291 29.2492 48.5119L44.7101 43.5321C45.5366 43.2659 46.0969 42.4967 46.0969 41.6284Z" fill="url(#paint2_linear_261_69)" shape-rendering="crispEdges"/>
<path d="M57.9059 53.1528V50.4894C57.9059 48.6926 60.1018 47.7979 61.3882 49.0524C67.4273 54.9415 71.9957 58.3665 77.7797 61.8858C79.4521 62.9034 78.8789 65.3126 76.9268 65.1644C76.7257 65.1491 76.5179 65.1323 76.3027 65.114C76.1244 65.0989 75.9469 65.0586 75.7793 64.9957C69.1944 62.5248 65.2767 60.1825 58.626 54.6864C58.1691 54.3089 57.9059 53.7455 57.9059 53.1528Z" fill="url(#paint3_linear_261_69)" shape-rendering="crispEdges"/>
<path d="M42.8897 33.1898L43.296 33.7372C43.7962 34.4111 44.6639 34.701 45.4687 34.4632L63.6848 29.0804C65.0094 28.689 65.5479 27.1047 64.7363 25.9871L64.0415 25.0304C63.5329 24.3302 62.6318 24.0364 61.8083 24.3025L43.8808 30.0947C42.5783 30.5155 42.0739 32.0908 42.8897 33.1898Z" stroke="black" stroke-opacity="0.9" shape-rendering="crispEdges"/>
<path d="M46.0969 41.6284V39.9337C46.0969 39.0564 46.6686 38.2816 47.5068 38.0227L53.0271 36.3178C54.137 35.9751 55.2247 36.9073 55.0558 38.0565C54.8877 39.2009 55.9662 40.1319 57.0738 39.7984L66.0475 37.0969C66.8247 36.8629 67.6663 37.1218 68.1775 37.7523L68.8991 38.6423C69.7878 39.7384 69.2925 41.3854 67.9465 41.8094L54.5327 46.0354C53.8621 46.2466 53.3517 46.7945 53.1883 47.4783L51.3151 55.3205C51.1613 55.9647 50.6984 56.4909 50.0792 56.7258L25.9486 65.8789C25.7156 65.9673 25.4581 65.9662 25.2257 65.876C24.4262 65.5654 24.3546 64.462 25.1073 64.0508L44.8366 53.2702C45.4289 52.9465 45.8176 52.3454 45.8698 51.6724C45.9787 50.2665 44.6354 49.1938 43.2884 49.6111L31.202 53.3556C30.3839 53.6091 29.4952 53.3135 28.9919 52.6205L28.2441 51.5908C27.4445 50.4898 27.954 48.9291 29.2492 48.5119L44.7101 43.5321C45.5366 43.2659 46.0969 42.4967 46.0969 41.6284Z" stroke="black" stroke-opacity="0.9" shape-rendering="crispEdges"/>
<path d="M57.9059 53.1528V50.4894C57.9059 48.6926 60.1018 47.7979 61.3882 49.0524C67.4273 54.9415 71.9957 58.3665 77.7797 61.8858C79.4521 62.9034 78.8789 65.3126 76.9268 65.1644C76.7257 65.1491 76.5179 65.1323 76.3027 65.114C76.1244 65.0989 75.9469 65.0586 75.7793 64.9957C69.1944 62.5248 65.2767 60.1825 58.626 54.6864C58.1691 54.3089 57.9059 53.7455 57.9059 53.1528Z" stroke="black" stroke-opacity="0.9" shape-rendering="crispEdges"/>
</g>
<g filter="url(#filter1_d_261_69)">
<mask id="path-4-outside-1_261_69" maskUnits="userSpaceOnUse" x="42.4385" y="60.5669" width="21" height="10" fill="black">
<rect fill="white" x="42.4385" y="60.5669" width="21" height="10"/>
<path d="M45.498 69.5669H44.5605L47.5244 62.5845H48.5254L51.5039 69.5669H50.5029L49.5996 67.3696H47.29L47.5391 66.6372H49.2969L47.9932 63.4731L45.498 69.5669ZM53.0176 68.6636V69.5669H52.1143V68.6636H53.0176ZM55.2441 62.5845V69.5669H54.3408V62.5845H55.2441ZM60.1562 62.5845L57.0117 65.8804L60.2246 69.5669H58.9697L56.123 66.2075V65.6606L59.0137 62.5845H60.1562Z"/>
</mask>
<path d="M45.498 69.5669H44.5605L47.5244 62.5845H48.5254L51.5039 69.5669H50.5029L49.5996 67.3696H47.29L47.5391 66.6372H49.2969L47.9932 63.4731L45.498 69.5669ZM53.0176 68.6636V69.5669H52.1143V68.6636H53.0176ZM55.2441 62.5845V69.5669H54.3408V62.5845H55.2441ZM60.1562 62.5845L57.0117 65.8804L60.2246 69.5669H58.9697L56.123 66.2075V65.6606L59.0137 62.5845H60.1562Z" fill="url(#paint4_linear_261_69)"/>
<path d="M45.498 69.5669V70.5669H46.1692L46.4235 69.9458L45.498 69.5669ZM44.5605 69.5669L43.64 69.1762L43.0497 70.5669H44.5605V69.5669ZM47.5244 62.5845V61.5845H46.8625L46.6039 62.1937L47.5244 62.5845ZM48.5254 62.5845L49.4452 62.1921L49.186 61.5845H48.5254V62.5845ZM51.5039 69.5669V70.5669H53.0177L52.4237 69.1745L51.5039 69.5669ZM50.5029 69.5669L49.578 69.9471L49.8328 70.5669H50.5029V69.5669ZM49.5996 67.3696L50.5245 66.9894L50.2697 66.3696H49.5996V67.3696ZM47.29 67.3696L46.3433 67.0477L45.8938 68.3696H47.29V67.3696ZM47.5391 66.6372V65.6372H46.8228L46.5923 66.3153L47.5391 66.6372ZM49.2969 66.6372V67.6372H50.7905L50.2215 66.2562L49.2969 66.6372ZM47.9932 63.4731L48.9178 63.0922L47.9903 60.8412L47.0677 63.0942L47.9932 63.4731ZM45.498 68.5669H44.5605V70.5669H45.498V68.5669ZM45.4811 69.9576L48.4449 62.9752L46.6039 62.1937L43.64 69.1762L45.4811 69.9576ZM47.5244 63.5845H48.5254V61.5845H47.5244V63.5845ZM47.6056 62.9768L50.5841 69.9593L52.4237 69.1745L49.4452 62.1921L47.6056 62.9768ZM51.5039 68.5669H50.5029V70.5669H51.5039V68.5669ZM51.4278 69.1867L50.5245 66.9894L48.6747 67.7499L49.578 69.9471L51.4278 69.1867ZM49.5996 66.3696H47.29V68.3696H49.5996V66.3696ZM48.2368 67.6915L48.4858 66.9591L46.5923 66.3153L46.3433 67.0477L48.2368 67.6915ZM47.5391 67.6372H49.2969V65.6372H47.5391V67.6372ZM50.2215 66.2562L48.9178 63.0922L47.0686 63.8541L48.3723 67.0182L50.2215 66.2562ZM47.0677 63.0942L44.5726 69.188L46.4235 69.9458L48.9186 63.8521L47.0677 63.0942ZM53.0176 68.6636H54.0176V67.6636H53.0176V68.6636ZM53.0176 69.5669V70.5669H54.0176V69.5669H53.0176ZM52.1143 69.5669H51.1143V70.5669H52.1143V69.5669ZM52.1143 68.6636V67.6636H51.1143V68.6636H52.1143ZM52.0176 68.6636V69.5669H54.0176V68.6636H52.0176ZM53.0176 68.5669H52.1143V70.5669H53.0176V68.5669ZM53.1143 69.5669V68.6636H51.1143V69.5669H53.1143ZM52.1143 69.6636H53.0176V67.6636H52.1143V69.6636ZM55.2441 62.5845H56.2441V61.5845H55.2441V62.5845ZM55.2441 69.5669V70.5669H56.2441V69.5669H55.2441ZM54.3408 69.5669H53.3408V70.5669H54.3408V69.5669ZM54.3408 62.5845V61.5845H53.3408V62.5845H54.3408ZM60.1562 62.5845L60.8798 63.2748L62.4924 61.5845H60.1562V62.5845ZM57.0117 65.8804L56.2882 65.1901L55.6587 65.8499L56.2578 66.5374L57.0117 65.8804ZM60.2246 69.5669V70.5669H62.4226L60.9785 68.9099L60.2246 69.5669ZM58.9697 69.5669L58.2068 70.2134L58.5064 70.5669H58.9697V69.5669ZM56.123 66.2075H55.123V66.5742L55.3601 66.854L56.123 66.2075ZM56.123 65.6606L55.3943 64.9759L55.123 65.2645V65.6606H56.123ZM59.0137 62.5845V61.5845H58.5811L58.2849 61.8997L59.0137 62.5845ZM54.2441 62.5845V69.5669H56.2441V62.5845H54.2441ZM55.2441 68.5669H54.3408V70.5669H55.2441V68.5669ZM55.3408 69.5669V62.5845H53.3408V69.5669H55.3408ZM54.3408 63.5845H55.2441V61.5845H54.3408V63.5845ZM59.4327 61.8942L56.2882 65.1901L57.7352 66.5707L60.8798 63.2748L59.4327 61.8942ZM56.2578 66.5374L59.4707 70.2239L60.9785 68.9099L57.7656 65.2234L56.2578 66.5374ZM60.2246 68.5669H58.9697V70.5669H60.2246V68.5669ZM59.7326 68.9204L56.886 65.561L55.3601 66.854L58.2068 70.2134L59.7326 68.9204ZM57.123 66.2075V65.6606H55.123V66.2075H57.123ZM56.8518 66.3454L59.7424 63.2693L58.2849 61.8997L55.3943 64.9759L56.8518 66.3454ZM59.0137 63.5845H60.1562V61.5845H59.0137V63.5845Z" fill="black" mask="url(#path-4-outside-1_261_69)"/>
</g>
<defs>
<filter id="filter0_d_261_69" x="7.88203" y="15.5056" width="87.5826" height="75.1388" filterUnits="userSpaceOnUse" color-interpolation-filters="sRGB">
<feFlood flood-opacity="0" result="BackgroundImageFix"/>
<feColorMatrix in="SourceAlpha" type="matrix" values="0 0 0 0 0 0 0 0 0 0 0 0 0 0 0 0 0 0 127 0" result="hardAlpha"/>
<feOffset dy="8"/>
<feGaussianBlur stdDeviation="8.1"/>
<feComposite in2="hardAlpha" operator="out"/>
<feColorMatrix type="matrix" values="0 0 0 0 0 0 0 0 0 0 0 0 0 0 0 0 0 0 0.25 0"/>
<feBlend mode="normal" in2="BackgroundImageFix" result="effect1_dropShadow_261_69"/>
<feBlend mode="normal" in="SourceGraphic" in2="effect1_dropShadow_261_69" result="shape"/>
</filter>
<filter id="filter1_d_261_69" x="38.5605" y="60.5845" width="23.6641" height="14.9824" filterUnits="userSpaceOnUse" color-interpolation-filters="sRGB">
<feFlood flood-opacity="0" result="BackgroundImageFix"/>
<feColorMatrix in="SourceAlpha" type="matrix" values="0 0 0 0 0 0 0 0 0 0 0 0 0 0 0 0 0 0 127 0" result="hardAlpha"/>
<feOffset dx="-2" dy="2"/>
<feGaussianBlur stdDeviation="2"/>
<feComposite in2="hardAlpha" operator="out"/>
<feColorMatrix type="matrix" values="0 0 0 0 0 0 0 0 0 0 0 0 0 0 0 0 0 0 0.25 0"/>
<feBlend mode="normal" in2="BackgroundImageFix" result="effect1_dropShadow_261_69"/>
<feBlend mode="normal" in="SourceGraphic" in2="effect1_dropShadow_261_69" result="shape"/>
</filter>
<linearGradient id="paint0_linear_261_69" x1="53.4512" y1="0" x2="53.4512" y2="98.5098" gradientUnits="userSpaceOnUse">
<stop stop-color="#04586A"/>
<stop offset="0.296212" stop-color="#0D88CD"/>
<stop offset="0.604827" stop-color="#138CD0"/>
<stop offset="0.903068" stop-color="white"/>
</linearGradient>
<linearGradient id="paint1_linear_261_69" x1="53.2445" y1="23.8564" x2="53.2445" y2="66.0162" gradientUnits="userSpaceOnUse">
<stop offset="0.0413354" stop-color="#0EE2BC"/>
<stop offset="1" stop-color="#E20EB3"/>
</linearGradient>
<linearGradient id="paint2_linear_261_69" x1="53.2445" y1="23.8564" x2="53.2445" y2="66.0162" gradientUnits="userSpaceOnUse">
<stop offset="0.0413354" stop-color="#0EE2BC"/>
<stop offset="1" stop-color="#E20EB3"/>
</linearGradient>
<linearGradient id="paint3_linear_261_69" x1="53.2445" y1="23.8564" x2="53.2445" y2="66.0162" gradientUnits="userSpaceOnUse">
<stop offset="0.0413354" stop-color="#0EE2BC"/>
<stop offset="1" stop-color="#E20EB3"/>
</linearGradient>
<linearGradient id="paint4_linear_261_69" x1="53.1398" y1="60.5669" x2="53.1398" y2="71.4667" gradientUnits="userSpaceOnUse">
<stop offset="0.0413354" stop-color="#0EE2BC"/>
<stop offset="1" stop-color="#E20EB3"/>
</linearGradient>
</defs>
</svg>
